<svg width="62" height="62" viewBox="0 0 62 62" fill="none" xmlns="http://www.w3.org/2000/svg">
<circle cx="30.9982" cy="31" r="31" fill="#EDECF7"/>
<path d="M28.1182 37.108C31.1062 37.108 33.2662 34.84 33.2662 31.6C33.2662 28.36 31.1062 26.092 28.1182 26.092C25.0942 26.092 22.9522 28.36 22.9522 31.6C22.9522 34.84 25.0942 37.108 28.1182 37.108ZM28.1182 35.92C25.8682 35.92 24.2842 34.264 24.2842 31.6C24.2842 28.936 25.8682 27.28 28.1182 27.28C30.3502 27.28 31.9342 28.936 31.9342 31.6C31.9342 34.264 30.3502 35.92 28.1182 35.92ZM34.377 26.2V27.352H37.347V37H38.643V26.2H34.377Z" fill="#515076"/>
</svg>
